<svg width="14" height="14" viewBox="0 0 14 14" fill="none" xmlns="http://www.w3.org/2000/svg">
<path d="M8.75 9.9375V8.625H14V12.5625C14 13.2734 13.3711 13.875 12.6875 13.875H1.3125C0.601562 13.875 0 13.2734 0 12.5625V8.625H5.25V9.9375C5.25 10.1836 5.44141 10.375 5.6875 10.375H8.3125C8.53125 10.375 8.75 10.1836 8.75 9.9375ZM12.6875 3.375C13.3711 3.375 14 4.00391 14 4.6875V7.75H0V4.6875C0 4.00391 0.601562 3.375 1.3125 3.375H3.5V2.0625C3.5 1.37891 4.10156 0.75 4.8125 0.75H9.1875C9.87109 0.75 10.5 1.37891 10.5 2.0625V3.375H12.6875ZM9.1875 3.375V2.0625H4.8125V3.375H9.1875Z" fill="#758BB9"/>
</svg>
