<svg width="18" height="13" viewBox="0 0 18 13" fill="none" xmlns="http://www.w3.org/2000/svg">
<path d="M17.2852 3.49609C17.5586 3.60547 17.75 3.85156 17.75 4.125C17.75 4.42578 17.5586 4.67188 17.2852 4.78125L9.57422 7.54297C9.19141 7.67969 8.78125 7.67969 8.39844 7.54297L3.20312 5.68359C2.875 6.03906 2.62891 6.47656 2.51953 6.96875C2.71094 7.10547 2.875 7.35156 2.875 7.625C2.875 7.89844 2.73828 8.14453 2.54688 8.30859L3.20312 12.3828C3.25781 12.6562 3.03906 12.875 2.79297 12.875H1.17969C0.933594 12.875 0.714844 12.6562 0.769531 12.3828L1.42578 8.30859C1.23438 8.14453 1.125 7.89844 1.125 7.625C1.125 7.26953 1.34375 6.96875 1.64453 6.83203C1.75391 6.28516 2 5.79297 2.32812 5.35547L0.6875 4.78125C0.414062 4.67188 0.25 4.42578 0.25 4.125C0.25 3.85156 0.414062 3.60547 0.6875 3.49609L8.37109 0.734375C8.75391 0.597656 9.16406 0.597656 9.54688 0.734375L17.2852 3.49609ZM9.84766 8.36328L13.8398 6.94141L14.25 10.8516C14.25 11.9727 11.8711 12.875 9 12.875C6.07422 12.875 3.75 11.9727 3.75 10.8516L4.13281 6.94141L8.125 8.36328C8.39844 8.47266 8.69922 8.5 9 8.5C9.27344 8.5 9.57422 8.47266 9.84766 8.36328Z" fill="#758BB9"/>
</svg>
