<svg width="14" height="15" viewBox="0 0 14 15" fill="none" xmlns="http://www.w3.org/2000/svg">
<path d="M7 0.75C10.8555 0.75 14 3.89453 14 7.75C14 11.6328 10.8555 14.75 7 14.75C3.11719 14.75 0 11.6328 0 7.75C0 3.89453 3.11719 0.75 7 0.75ZM7 4.25C5.90625 4.25 5.03125 5.15234 5.03125 6.21875C5.03125 7.3125 5.90625 8.1875 7 8.1875C8.06641 8.1875 8.96875 7.3125 8.96875 6.21875C8.96875 5.15234 8.06641 4.25 7 4.25ZM7 13C8.42188 13 9.73438 12.4258 10.6914 11.4688C10.2539 10.3203 9.16016 9.5 7.875 9.5H6.125C4.8125 9.5 3.71875 10.3203 3.28125 11.4688C4.23828 12.4258 5.55078 13 7 13Z" fill="#758BB9"/>
</svg>
